<svg width="514" height="143" viewBox="0 0 514 143" fill="none" xmlns="http://www.w3.org/2000/svg">
<g clip-path="url(#clip0_508_252)">
<path d="M61.3177 122.154C89.2932 122.154 111.972 99.4755 111.972 71.5C111.972 43.5245 89.2932 20.8459 61.3177 20.8459C33.3422 20.8459 10.6636 43.5245 10.6636 71.5C10.6636 99.4755 33.3422 122.154 61.3177 122.154Z" stroke="white" stroke-width="15.996"/>
<path d="M39.9893 51.5049H82.6454" stroke="#A99BF2" stroke-opacity="0.4" stroke-width="9.33103" stroke-linecap="round"/>
<path d="M39.9893 71.5H82.6454" stroke="#A99BF2" stroke-opacity="0.6" stroke-width="9.33103" stroke-linecap="round"/>
<path d="M39.9893 91.4951H82.6454" stroke="#9C88FF" stroke-width="13.33" stroke-linecap="round"/>
<path d="M132.207 134.945V55.3932H148.447V65.0492H148.996C149.8 61.8305 151.629 59.1971 154.482 57.1488C157.408 55.1006 160.737 54.0765 164.467 54.0765C169.368 54.0765 173.428 55.2469 176.647 57.5877C179.939 59.8554 182.426 63.2204 184.108 67.6826C185.791 72.1449 186.632 77.6312 186.632 84.1417C186.632 90.6522 185.791 96.1752 184.108 100.711C182.426 105.173 179.939 108.574 176.647 110.915C173.428 113.183 169.368 114.317 164.467 114.317C160.737 114.317 157.408 113.293 154.482 111.244C151.629 109.123 149.8 106.49 148.996 103.344H148.447V134.945H132.207ZM159.091 101.149C162.163 101.149 164.687 100.052 166.662 97.8576C168.71 95.6631 169.734 92.7736 169.734 89.1892V79.204C169.734 75.5464 168.71 72.6569 166.662 70.5355C164.687 68.341 162.163 67.2437 159.091 67.2437C157.042 67.2437 155.214 67.5729 153.604 68.2313C151.995 68.8896 150.715 69.8772 149.764 71.1939C148.886 72.4375 148.447 73.9371 148.447 75.6927V92.7005C148.447 94.4561 148.886 95.9923 149.764 97.309C150.715 98.5526 151.995 99.5035 153.604 100.162C155.214 100.82 157.042 101.149 159.091 101.149ZM229.136 113H219.48C213.921 113 209.678 111.574 206.752 108.721C203.826 105.868 202.363 101.698 202.363 96.2117V68.0118H194.243V55.3932H198.303C200.498 55.3932 201.997 54.8811 202.802 53.857C203.607 52.7597 204.009 51.2235 204.009 49.2485V39.8119H218.603V55.3932H230.014V68.0118H218.603V100.381H229.136V113ZM250.384 49.2485C247.092 49.2485 244.678 48.4804 243.142 46.9442C241.679 45.408 240.947 43.5061 240.947 41.2384V38.8244C240.947 36.4835 241.679 34.5816 243.142 33.1185C244.678 31.5824 247.092 30.8143 250.384 30.8143C253.675 30.8143 256.053 31.5824 257.516 33.1185C259.052 34.5816 259.82 36.4835 259.82 38.8244V41.2384C259.82 43.5061 259.052 45.408 257.516 46.9442C256.053 48.4804 253.675 49.2485 250.384 49.2485ZM242.264 113V55.3932H258.503V113H242.264ZM274.628 134.945V55.3932H290.868V65.0492H291.417C292.221 61.8305 294.05 59.1971 296.903 57.1488C299.829 55.1006 303.158 54.0765 306.888 54.0765C311.789 54.0765 315.849 55.2469 319.068 57.5877C322.36 59.8554 324.847 63.2204 326.529 67.6826C328.212 72.1449 329.053 77.6312 329.053 84.1417C329.053 90.6522 328.212 96.1752 326.529 100.711C324.847 105.173 322.36 108.574 319.068 110.915C315.849 113.183 311.789 114.317 306.888 114.317C303.158 114.317 299.829 113.293 296.903 111.244C294.05 109.123 292.221 106.49 291.417 103.344H290.868V134.945H274.628ZM301.512 101.149C304.584 101.149 307.108 100.052 309.083 97.8576C311.131 95.6631 312.155 92.7736 312.155 89.1892V79.204C312.155 75.5464 311.131 72.6569 309.083 70.5355C307.108 68.341 304.584 67.2437 301.512 67.2437C299.463 67.2437 297.635 67.5729 296.025 68.2313C294.416 68.8896 293.136 69.8772 292.185 71.1939C291.307 72.4375 290.868 73.9371 290.868 75.6927V92.7005C290.868 94.4561 291.307 95.9923 292.185 97.309C293.136 98.5526 294.416 99.5035 296.025 100.162C297.635 100.82 299.463 101.149 301.512 101.149ZM393.926 113H384.929C382.954 113 381.088 112.525 379.333 111.574C377.65 110.549 376.297 109.086 375.273 107.184C374.249 105.209 373.737 102.869 373.737 100.162V98.7355L377.248 102.905H373.298C372.42 106.636 370.481 109.489 367.482 111.464C364.483 113.366 360.789 114.317 356.4 114.317C350.621 114.317 346.195 112.781 343.123 109.708C340.05 106.563 338.514 102.503 338.514 97.5285C338.514 93.432 339.502 90.067 341.477 87.4335C343.525 84.8001 346.378 82.825 350.035 81.5083C353.766 80.1915 358.155 79.5332 363.203 79.5332H372.31V75.9122C372.31 73.1324 371.579 70.9379 370.116 69.3285C368.653 67.6461 366.202 66.8048 362.764 66.8048C359.545 66.8048 356.985 67.4998 355.083 68.8896C353.181 70.2795 351.608 71.8523 350.365 73.6079L340.709 65.0492C343.049 61.6111 346.012 58.941 349.597 57.0391C353.181 55.064 357.972 54.0765 363.971 54.0765C372.091 54.0765 378.199 55.9052 382.295 59.5628C386.465 63.1472 388.55 68.341 388.55 75.1441V100.381H393.926V113ZM372.31 88.7503H364.41C361.264 88.7503 358.887 89.2989 357.277 90.3962C355.668 91.4935 354.863 93.1028 354.863 95.2242V96.8701C354.863 98.9183 355.522 100.455 356.839 101.479C358.155 102.503 360.021 103.015 362.435 103.015C364.263 103.015 365.909 102.759 367.372 102.247C368.835 101.735 370.006 100.93 370.884 99.8327C371.835 98.7355 372.31 97.309 372.31 95.5534V88.7503Z" fill="white"/>
<path d="M426.739 114.317C421.179 114.317 416.498 113.439 412.694 111.683C408.89 109.854 405.488 107.294 402.489 104.002L412.035 94.3464C414.084 96.6141 416.351 98.4063 418.839 99.723C421.326 101.04 424.142 101.698 427.288 101.698C430.506 101.698 432.737 101.223 433.981 100.272C435.224 99.2475 435.846 97.8942 435.846 96.2117C435.846 94.7487 435.371 93.6514 434.42 92.9199C433.542 92.1884 432.079 91.6763 430.031 91.3837L423.776 90.6156C419.46 90.0304 415.839 89.0063 412.913 87.5433C410.06 86.0802 407.902 84.1417 406.439 81.7277C405.049 79.2406 404.355 76.2779 404.355 72.8398C404.355 67.2803 406.366 62.7815 410.39 59.3434C414.413 55.8321 419.863 54.0765 426.739 54.0765C430.762 54.0765 434.164 54.4422 436.944 55.1737C439.723 55.8321 442.137 56.8562 444.186 58.2461C446.307 59.5628 448.319 61.1721 450.221 63.0741L440.894 72.6204C439.065 70.7916 436.98 69.3651 434.639 68.341C432.372 67.2437 430.031 66.6951 427.617 66.6951C424.91 66.6951 422.935 67.134 421.691 68.0118C420.521 68.8896 419.936 70.0601 419.936 71.5231C419.936 73.0593 420.338 74.2663 421.143 75.1441C422.021 75.9488 423.63 76.534 425.971 76.8997L432.445 77.7775C438.736 78.5822 443.454 80.4476 446.6 83.3736C449.818 86.2265 451.428 90.1402 451.428 95.1145C451.428 98.772 450.403 102.064 448.355 104.99C446.307 107.916 443.417 110.22 439.687 111.903C436.029 113.512 431.713 114.317 426.739 114.317Z" fill="white"/>
<path d="M484.739 114.317C479.179 114.317 474.498 113.439 470.694 111.683C466.89 109.854 463.488 107.294 460.489 104.002L470.035 94.3464C472.084 96.6141 474.351 98.4063 476.839 99.723C479.326 101.04 482.142 101.698 485.288 101.698C488.506 101.698 490.737 101.223 491.981 100.272C493.224 99.2475 493.846 97.8942 493.846 96.2117C493.846 94.7487 493.371 93.6514 492.42 92.9199C491.542 92.1884 490.079 91.6763 488.031 91.3837L481.776 90.6156C477.46 90.0304 473.839 89.0063 470.913 87.5433C468.06 86.0802 465.902 84.1417 464.439 81.7277C463.049 79.2406 462.355 76.2779 462.355 72.8398C462.355 67.2803 464.366 62.7815 468.39 59.3434C472.413 55.8321 477.863 54.0765 484.739 54.0765C488.762 54.0765 492.164 54.4422 494.944 55.1737C497.723 55.8321 500.137 56.8562 502.186 58.2461C504.307 59.5628 506.319 61.1721 508.221 63.0741L498.894 72.6204C497.065 70.7916 494.98 69.3651 492.639 68.341C490.372 67.2437 488.031 66.6951 485.617 66.6951C482.91 66.6951 480.935 67.134 479.691 68.0118C478.521 68.8896 477.936 70.0601 477.936 71.5231C477.936 73.0593 478.338 74.2663 479.143 75.1441C480.021 75.9488 481.63 76.534 483.971 76.8997L490.445 77.7775C496.736 78.5822 501.454 80.4476 504.6 83.3736C507.818 86.2265 509.428 90.1402 509.428 95.1145C509.428 98.772 508.403 102.064 506.355 104.99C504.307 107.916 501.417 110.22 497.687 111.903C494.029 113.512 489.713 114.317 484.739 114.317Z" fill="#6E6690"/>
<path d="M457.636 79.4235H512.939V90.3962H457.636V79.4235Z" fill="#6E6690"/>
</g>
<defs>
<clipPath id="clip0_508_252">
<rect width="514" height="143" fill="white"/>
</clipPath>
</defs>
</svg>
