<svg width="142" height="142" viewBox="0 0 142 142" fill="none" xmlns="http://www.w3.org/2000/svg">
<g clip-path="url(#clip0_508_236)">
<g filter="url(#filter0_d_508_236)">
<g clip-path="url(#clip1_508_236)">
<mask id="mask0_508_236" style="mask-type:luminance" maskUnits="userSpaceOnUse" x="0" y="0" width="142" height="142">
<path d="M106.742 0.6875H35.2578C16.1652 0.6875 0.6875 16.1652 0.6875 35.2578V106.742C0.6875 125.835 16.1652 141.312 35.2578 141.312H106.742C125.835 141.312 141.312 125.835 141.312 106.742V35.2578C141.312 16.1652 125.835 0.6875 106.742 0.6875Z" fill="white"/>
</mask>
<g mask="url(#mask0_508_236)">
<path d="M141.312 0.6875H0.6875V141.312H141.312V0.6875Z" fill="url(#paint0_linear_508_236)"/>
<path opacity="0.7" d="M71 42.875C124.395 42.875 167.68 23.2 167.68 -1.07031C167.68 -25.3406 124.395 -45.0156 71 -45.0156C17.6053 -45.0156 -25.6797 -25.3406 -25.6797 -1.07031C-25.6797 23.2 17.6053 42.875 71 42.875Z" fill="white"/>
<path d="M96.7812 30.5703H45.2188C40.6883 30.5703 37.0156 34.243 37.0156 38.7734C37.0156 43.3039 40.6883 46.9766 45.2188 46.9766H96.7812C101.312 46.9766 104.984 43.3039 104.984 38.7734C104.984 34.243 101.312 30.5703 96.7812 30.5703Z" fill="#8B7BEE" fill-opacity="0.18" stroke="#7C5CFF" stroke-opacity="0.3" stroke-width="1.17188" stroke-dasharray="5.86 4.39"/>
<path d="M96.7812 55.7656H45.2188C40.6883 55.7656 37.0156 59.4383 37.0156 63.9688C37.0156 68.4992 40.6883 72.1719 45.2188 72.1719H96.7812C101.312 72.1719 104.984 68.4992 104.984 63.9688C104.984 59.4383 101.312 55.7656 96.7812 55.7656Z" fill="#8B7BEE" fill-opacity="0.3"/>
<path d="M97.9531 81.5469H44.0469C36.604 81.5469 30.5703 87.5805 30.5703 95.0234C30.5703 102.466 36.604 108.5 44.0469 108.5H97.9531C105.396 108.5 111.43 102.466 111.43 95.0234C111.43 87.5805 105.396 81.5469 97.9531 81.5469Z" fill="url(#paint1_linear_508_236)"/>
<path d="M104.691 81.5469H37.3086C33.5871 81.5469 30.5703 84.5637 30.5703 88.2852C30.5703 92.0066 33.5871 95.0234 37.3086 95.0234H104.691C108.413 95.0234 111.43 92.0066 111.43 88.2852C111.43 84.5637 108.413 81.5469 104.691 81.5469Z" fill="white" fill-opacity="0.22"/>
<path d="M46.3906 100.004C49.1413 100.004 51.3711 97.7741 51.3711 95.0234C51.3711 92.2728 49.1413 90.043 46.3906 90.043C43.64 90.043 41.4102 92.2728 41.4102 95.0234C41.4102 97.7741 43.64 100.004 46.3906 100.004Z" fill="white"/>
<path d="M95.6094 92.6797H59.2812C57.9868 92.6797 56.9375 93.729 56.9375 95.0234C56.9375 96.3179 57.9868 97.3672 59.2812 97.3672H95.6094C96.9038 97.3672 97.9531 96.3179 97.9531 95.0234C97.9531 93.729 96.9038 92.6797 95.6094 92.6797Z" fill="white" fill-opacity="0.85"/>
</g>
<path d="M106.303 1.41992H35.6973C16.7664 1.41992 1.41992 16.7664 1.41992 35.6973V106.303C1.41992 125.234 16.7664 140.58 35.6973 140.58H106.303C125.234 140.58 140.58 125.234 140.58 106.303V35.6973C140.58 16.7664 125.234 1.41992 106.303 1.41992Z" stroke="#8B84C9" stroke-opacity="0.35" stroke-width="0.732422"/>
</g>
</g>
</g>
<defs>
<filter id="filter0_d_508_236" x="-52" y="-40" width="246" height="246" filterUnits="userSpaceOnUse" color-interpolation-filters="sRGB">
<feFlood flood-opacity="0" result="BackgroundImageFix"/>
<feColorMatrix in="SourceAlpha" type="matrix" values="0 0 0 0 0 0 0 0 0 0 0 0 0 0 0 0 0 0 127 0" result="hardAlpha"/>
<feOffset dy="12"/>
<feGaussianBlur stdDeviation="26"/>
<feColorMatrix type="matrix" values="0 0 0 0 0.235294 0 0 0 0 0.235294 0 0 0 0 0.431373 0 0 0 0.35 0"/>
<feBlend mode="normal" in2="BackgroundImageFix" result="effect1_dropShadow_508_236"/>
<feBlend mode="normal" in="SourceGraphic" in2="effect1_dropShadow_508_236" result="shape"/>
</filter>
<linearGradient id="paint0_linear_508_236" x1="0.6875" y1="0.6875" x2="0.6875" y2="141.312" gradientUnits="userSpaceOnUse">
<stop stop-color="#F4F4FE"/>
<stop offset="1" stop-color="#E2E4F8"/>
</linearGradient>
<linearGradient id="paint1_linear_508_236" x1="30.5703" y1="81.5469" x2="111.43" y2="81.5469" gradientUnits="userSpaceOnUse">
<stop stop-color="#7C5CFF"/>
<stop offset="1" stop-color="#3D5AF5"/>
</linearGradient>
<clipPath id="clip0_508_236">
<rect width="142" height="142" fill="white"/>
</clipPath>
<clipPath id="clip1_508_236">
<rect width="142" height="142" fill="white"/>
</clipPath>
</defs>
</svg>
