<svg width="240" height="240" viewBox="0 0 240 240" fill="none" xmlns="http://www.w3.org/2000/svg">
<path d="M46.5 139C56.9934 139 65.5 130.493 65.5 120C65.5 109.507 56.9934 101 46.5 101C36.0066 101 27.5 109.507 27.5 120C27.5 130.493 36.0066 139 46.5 139Z" stroke="#EEFFFF" stroke-width="5.5"/>
<path d="M38.5 113H54.5" stroke="#616161" stroke-width="3.5" stroke-linecap="round"/>
<path d="M38.5 120H54.5" stroke="#616161" stroke-width="3.5" stroke-linecap="round"/>
<path d="M38.5 127H54.5" stroke="#F07178" stroke-width="4.5" stroke-linecap="round"/>
<path d="M77.26 143V114H83.18V117.52H83.38C83.6733 116.347 84.34 115.387 85.38 114.64C86.4467 113.893 87.66 113.52 89.02 113.52C90.8067 113.52 92.2867 113.947 93.46 114.8C94.66 115.627 95.5667 116.853 96.18 118.48C96.7933 120.107 97.1 122.107 97.1 124.48C97.1 126.853 96.7933 128.867 96.18 130.52C95.5667 132.147 94.66 133.387 93.46 134.24C92.2867 135.067 90.8067 135.48 89.02 135.48C87.66 135.48 86.4467 135.107 85.38 134.36C84.34 133.587 83.6733 132.627 83.38 131.48H83.18V143H77.26ZM87.06 130.68C88.18 130.68 89.1 130.28 89.82 129.48C90.5667 128.68 90.94 127.627 90.94 126.32V122.68C90.94 121.347 90.5667 120.293 89.82 119.52C89.1 118.72 88.18 118.32 87.06 118.32C86.3133 118.32 85.6467 118.44 85.06 118.68C84.4733 118.92 84.0067 119.28 83.66 119.76C83.34 120.213 83.18 120.76 83.18 121.4V127.6C83.18 128.24 83.34 128.8 83.66 129.28C84.0067 129.733 84.4733 130.08 85.06 130.32C85.6467 130.56 86.3133 130.68 87.06 130.68ZM112.742 135H109.222C107.195 135 105.648 134.48 104.582 133.44C103.515 132.4 102.982 130.88 102.982 128.88V118.6H100.022V114H101.502C102.302 114 102.848 113.813 103.142 113.44C103.435 113.04 103.582 112.48 103.582 111.76V108.32H108.902V114H113.062V118.6H108.902V130.4H112.742V135ZM120.634 111.76C119.434 111.76 118.554 111.48 117.994 110.92C117.461 110.36 117.194 109.667 117.194 108.84V107.96C117.194 107.107 117.461 106.413 117.994 105.88C118.554 105.32 119.434 105.04 120.634 105.04C121.834 105.04 122.701 105.32 123.234 105.88C123.794 106.413 124.074 107.107 124.074 107.96V108.84C124.074 109.667 123.794 110.36 123.234 110.92C122.701 111.48 121.834 111.76 120.634 111.76ZM117.674 135V114H123.594V135H117.674ZM129.619 143V114H135.539V117.52H135.739C136.033 116.347 136.699 115.387 137.739 114.64C138.806 113.893 140.019 113.52 141.379 113.52C143.166 113.52 144.646 113.947 145.819 114.8C147.019 115.627 147.926 116.853 148.539 118.48C149.153 120.107 149.459 122.107 149.459 124.48C149.459 126.853 149.153 128.867 148.539 130.52C147.926 132.147 147.019 133.387 145.819 134.24C144.646 135.067 143.166 135.48 141.379 135.48C140.019 135.48 138.806 135.107 137.739 134.36C136.699 133.587 136.033 132.627 135.739 131.48H135.539V143H129.619ZM139.419 130.68C140.539 130.68 141.459 130.28 142.179 129.48C142.926 128.68 143.299 127.627 143.299 126.32V122.68C143.299 121.347 142.926 120.293 142.179 119.52C141.459 118.72 140.539 118.32 139.419 118.32C138.673 118.32 138.006 118.44 137.419 118.68C136.833 118.92 136.366 119.28 136.019 119.76C135.699 120.213 135.539 120.76 135.539 121.4V127.6C135.539 128.24 135.699 128.8 136.019 129.28C136.366 129.733 136.833 130.08 137.419 130.32C138.006 130.56 138.673 130.68 139.419 130.68ZM173.255 135H169.975C169.255 135 168.575 134.827 167.935 134.48C167.322 134.107 166.829 133.573 166.455 132.88C166.082 132.16 165.895 131.307 165.895 130.32V129.8L167.175 131.32H165.735C165.415 132.68 164.709 133.72 163.615 134.44C162.522 135.133 161.175 135.48 159.575 135.48C157.469 135.48 155.855 134.92 154.735 133.8C153.615 132.653 153.055 131.173 153.055 129.36C153.055 127.867 153.415 126.64 154.135 125.68C154.882 124.72 155.922 124 157.255 123.52C158.615 123.04 160.215 122.8 162.055 122.8H165.375V121.48C165.375 120.467 165.109 119.667 164.575 119.08C164.042 118.467 163.149 118.16 161.895 118.16C160.722 118.16 159.789 118.413 159.095 118.92C158.402 119.427 157.829 120 157.375 120.64L153.855 117.52C154.709 116.267 155.789 115.293 157.095 114.6C158.402 113.88 160.149 113.52 162.335 113.52C165.295 113.52 167.522 114.187 169.015 115.52C170.535 116.827 171.295 118.72 171.295 121.2V130.4H173.255V135ZM165.375 126.16H162.495C161.349 126.16 160.482 126.36 159.895 126.76C159.309 127.16 159.015 127.747 159.015 128.52V129.12C159.015 129.867 159.255 130.427 159.735 130.8C160.215 131.173 160.895 131.36 161.775 131.36C162.442 131.36 163.042 131.267 163.575 131.08C164.109 130.893 164.535 130.6 164.855 130.2C165.202 129.8 165.375 129.28 165.375 128.64V126.16Z" fill="#EEFFFF"/>
<path d="M184.849 135.48C182.822 135.48 181.115 135.16 179.729 134.52C178.342 133.853 177.102 132.92 176.009 131.72L179.489 128.2C180.235 129.027 181.062 129.68 181.969 130.16C182.875 130.64 183.902 130.88 185.049 130.88C186.222 130.88 187.035 130.707 187.489 130.36C187.942 129.987 188.169 129.493 188.169 128.88C188.169 128.347 187.995 127.947 187.649 127.68C187.329 127.413 186.795 127.227 186.049 127.12L183.769 126.84C182.195 126.627 180.875 126.253 179.809 125.72C178.769 125.187 177.982 124.48 177.449 123.6C176.942 122.693 176.689 121.613 176.689 120.36C176.689 118.333 177.422 116.693 178.889 115.44C180.355 114.16 182.342 113.52 184.849 113.52C186.315 113.52 187.555 113.653 188.569 113.92C189.582 114.16 190.462 114.533 191.209 115.04C191.982 115.52 192.715 116.107 193.409 116.8L190.009 120.28C189.342 119.613 188.582 119.093 187.729 118.72C186.902 118.32 186.049 118.12 185.169 118.12C184.182 118.12 183.462 118.28 183.009 118.6C182.582 118.92 182.369 119.347 182.369 119.88C182.369 120.44 182.515 120.88 182.809 121.2C183.129 121.493 183.715 121.707 184.569 121.84L186.929 122.16C189.222 122.453 190.942 123.133 192.089 124.2C193.262 125.24 193.849 126.667 193.849 128.48C193.849 129.813 193.475 131.013 192.729 132.08C191.982 133.147 190.929 133.987 189.569 134.6C188.235 135.187 186.662 135.48 184.849 135.48Z" fill="#F07178"/>
<path d="M205.232 135.48C203.205 135.48 201.498 135.16 200.112 134.52C198.725 133.853 197.485 132.92 196.392 131.72L199.872 128.2C200.618 129.027 201.445 129.68 202.352 130.16C203.258 130.64 204.285 130.88 205.432 130.88C206.605 130.88 207.418 130.707 207.872 130.36C208.325 129.987 208.552 129.493 208.552 128.88C208.552 128.347 208.378 127.947 208.032 127.68C207.712 127.413 207.178 127.227 206.432 127.12L204.152 126.84C202.578 126.627 201.258 126.253 200.192 125.72C199.152 125.187 198.365 124.48 197.832 123.6C197.325 122.693 197.072 121.613 197.072 120.36C197.072 118.333 197.805 116.693 199.272 115.44C200.738 114.16 202.725 113.52 205.232 113.52C206.698 113.52 207.938 113.653 208.952 113.92C209.965 114.16 210.845 114.533 211.592 115.04C212.365 115.52 213.098 116.107 213.792 116.8L210.392 120.28C209.725 119.613 208.965 119.093 208.112 118.72C207.285 118.32 206.432 118.12 205.552 118.12C204.565 118.12 203.845 118.28 203.392 118.6C202.965 118.92 202.752 119.347 202.752 119.88C202.752 120.44 202.898 120.88 203.192 121.2C203.512 121.493 204.098 121.707 204.952 121.84L207.312 122.16C209.605 122.453 211.325 123.133 212.472 124.2C213.645 125.24 214.232 126.667 214.232 128.48C214.232 129.813 213.858 131.013 213.112 132.08C212.365 133.147 211.312 133.987 209.952 134.6C208.618 135.187 207.045 135.48 205.232 135.48Z" fill="#474747"/>
<path d="M195.352 122.76H215.512V126.76H195.352V122.76Z" fill="#474747"/>
</svg>
